<?xml version="1.0" encoding="utf-8"?>
<!-- Generator: Adobe Illustrator 21.0.0, SVG Export Plug-In . SVG Version: 6.00 Build 0)  -->
<svg version="1.1" id="Layer_1" xmlns="http://www.w3.org/2000/svg" xmlns:xlink="http://www.w3.org/1999/xlink" x="0px" y="0px"
	 viewBox="0 0 72 72" style="enable-background:new 0 0 72 72;" xml:space="preserve">
<style type="text/css">
	.st0{fill:none;}
	.st1{fill:#FFFFFF;}
</style>
<g>
	<path class="st0" d="M38.4,43.6c-1.4,0.1-2.7,0-4.1,0c-0.5,0-0.7-0.1-0.9-0.4c0.1,0.6,0.4,0.7,1,0.7c1.4,0,2.7,0,4.1,0
		c0.6,0,0.9,0.1,1.1,0.5C39.5,43.8,39.1,43.6,38.4,43.6z"/>
	<path class="st0" d="M61.6,22.3c0.1,1.2-0.4,1.5-1.5,1.4c-1.6-0.1-3.1,0-4.7,0c-2.3,0.1-3.1,0.9-3.2,3.1c-0.1,2,0,3.9,0,6
		c0,0,0.1,0,0.1,0c0-2-0.1-3.9,0-5.7c0.1-2.2,0.9-3.1,3.2-3.1c1.6-0.1,3.1-0.1,4.7,0c1.1,0.1,1.6-0.2,1.5-1.4c-0.1-2,0-4.1,0-6.1
		c0-1,0-2,0-3.1c0,0-0.1,0-0.1,0c0,1,0,1.9,0,2.8C61.6,18.2,61.5,20.3,61.6,22.3z"/>
	<path class="st1" d="M0,0c0,24,0,48,0,72c13.2,0,26.4,0,39.6,0c0-6.2,0-12.4,0-18.6c0-2.9,0-5.8,0-8.6c0-0.2,0-0.3,0-0.4
		c-0.2-0.3-0.5-0.5-1.1-0.5c-1.4,0-2.7,0-4.1,0c-0.6,0-0.9-0.1-1-0.7c-0.1-0.1-0.1-0.3-0.1-0.5c0-2.9,0-5.8,0-8.8
		c0-0.7,0.3-0.9,0.9-0.9c1.2,0,2.3,0,3.5,0c1.8,0,1.8,0,1.8-1.8c0.1-2.8,0-5.6,0.4-8.4c0.7-5.3,3.9-8.5,9.1-9.4
		c0.9-0.2,1.8-0.3,2.7-0.3c3.2,0,6.5,0,9.9,0c0,0.1,0,0.2,0,0.3c0,0,0.1,0,0.1,0c0,1.1,0,2.1,0,3.1c0,2-0.1,4.1,0,6.1
		c0.1,1.2-0.4,1.5-1.5,1.4c-1.6-0.1-3.1-0.1-4.7,0c-2.3,0-3.1,0.9-3.2,3.1c-0.1,1.8,0,3.7,0,5.7c3.1,0,6.1,0,9.4,0
		c0,0.1,0,0.2,0,0.3c0,0,0.1,0,0.1,0c-0.4,3.6-0.7,7-1.1,10.6c-2.8,0-5.5,0-8.4,0c0,0.6,0,1,0,1.5c0,8.4,0,16.9,0,25.4
		c0,0.4,0,0.9,0,1.4c6.6,0,13.1,0,19.7,0c0-24,0-48,0-72C48,0,24,0,0,0z"/>
</g>
</svg>
