<svg id="Layer_1" data-name="Layer 1" xmlns="http://www.w3.org/2000/svg" width="100" height="100" viewBox="0 0 100 100"><title>Artboard 1</title><path d="M78.6,48.6c-1.7,2.6-4.4,5.1-8.5,7.7a29.3,29.3,0,0,1-5.4,2.8c-2.3.8-3-.1-3.8-1.4L40,24.6c-.9-1.4-1.1-2.5.8-4.2A54.1,54.1,0,0,1,46,16.7c5-3.2,13.3-6.2,17.9,1.1s-1.4,13.1-1.4,13.1,10.1-5.2,16.1,4.3A11.8,11.8,0,0,1,78.6,48.6Zm-26.4-13L54.6,34c2-1.3,5.2-3.3,6.4-6.7a7.1,7.1,0,0,0-.7-6.4c-3-4.7-8.2-3.6-12.7-.8A42.5,42.5,0,0,0,44,22.7ZM64.5,55.1a25,25,0,0,0,3.7-2c8-5.1,9.7-10.2,6.5-15.2a8.9,8.9,0,0,0-8.5-4.5c-4,.2-7.5,2.4-10.1,4l-2,1.3Z" fill="#ffe800"/><path d="M31,65.3c-6-9.4,3-16.4,3-16.4s-7.9,2.8-12.4-4.4,1.6-13.5,6.7-16.7a54.1,54.1,0,0,1,5.6-3.1c2.3-1,3.2-.4,4.1,1.1L58.9,59c.8,1.2,1.3,2.3-.4,4a29.3,29.3,0,0,1-4.8,3.6c-4.2,2.6-7.5,4-10.6,4.4A11.8,11.8,0,0,1,31,65.3Zm3.5-36.6a42.5,42.5,0,0,0-3.8,2.1c-4.5,2.9-7.7,7.1-4.7,11.8A7.1,7.1,0,0,0,31.4,46c3.6.4,6.8-1.6,8.8-2.9l2.4-1.5Zm10.1,16-2,1.3c-2.6,1.6-6.1,3.8-8,7.4a8.9,8.9,0,0,0,.4,9.6c3.2,5,8.5,5.7,16.5.7A25,25,0,0,0,55,61.1Z" fill="#ffe800"/><path d="M29,51.6s-4.9.5-7.1-3.3L1.5,49.7s10.2,3.4,7,7.7,1.2,5.1,3.7,6.3a10,10,0,0,0,3.6.9c1.2.1,2.9.9,2.3,4.6s.6,3.7,1.7,3.9A7.3,7.3,0,0,1,26,77.5a11.9,11.9,0,0,1,.6,4.4L29,65.3S25.4,55.1,29,51.6Z" fill="#ffe800"/><path d="M67.1,28s10.4-2.1,13.6,6.2L99,27.7s-12.6-2-9.3-6.8c1.8-2.6-.6-5-3.1-6.6A19.4,19.4,0,0,0,80.9,12c-2.2-.6-5.9-2.4-5.7-8.6L67.1,21.6S68.6,25,67.1,28Z" fill="#ffe800"/><path d="M9.1,94.1a4.8,4.8,0,0,1-1.9.3H5.9c-.5-.2-.6-.5-.6-.9V88.1c0-.5.2-.7.7-.8H7.2c1.6,0,2.6.5,2.6,1.7a1.6,1.6,0,0,1-1.1,1.6,1.9,1.9,0,0,1,.3,3.6ZM6.8,90H7a1.6,1.6,0,0,0,1-.3.8.8,0,0,0,.3-.6c0-.6-.6-.8-1.1-.8H6.8Zm0,3.2h.5c.9,0,1.5-.3,1.5-1a1,1,0,0,0-.5-.9A2.6,2.6,0,0,0,7,91.1H6.8Z" fill="#ffe800"/><path d="M13.2,89.9h1.9a.6.6,0,0,1,.2.5.6.6,0,0,1-.2.5H13.2V93h2.6a.6.6,0,0,1,.2.5.6.6,0,0,1-.2.5H12.5c-.5,0-.7-.2-.7-.7V87.9c0-.5.2-.7.7-.7h3a.6.6,0,0,1,.2.5.6.6,0,0,1-.2.5H13.2Z" fill="#ffe800"/><path d="M21.4,92.5H18.9l-.5,1.2c-.2.4-.3.7-.9.7s-.6-.2-.6-.4a1.1,1.1,0,0,1,.1-.4l2.3-5.6c.2-.5.4-.8.9-.8s.7.3.9.8l2.2,5.6a1.2,1.2,0,0,1,.1.4c0,.3-.2.4-.7.4s-.7-.2-.9-.7Zm-2.1-1.2h1.6l-.8-2.1Z" fill="#ffe800"/><path d="M29,92.7a2.1,2.1,0,0,0,.3-1.4V88a.9.9,0,0,1,.1-.6,1,1,0,0,1,1.2,0,.9.9,0,0,1,.1.6v3.2a3.3,3.3,0,0,1-.6,2.3,3,3,0,0,1-2.5.9,3,3,0,0,1-2.5-.9,3.2,3.2,0,0,1-.6-2.3V88a.9.9,0,0,1,.1-.6.7.7,0,0,1,.6-.2.7.7,0,0,1,.6.2.9.9,0,0,1,.1.6v3.3a2.1,2.1,0,0,0,.3,1.4,1.6,1.6,0,0,0,1.3.5A1.6,1.6,0,0,0,29,92.7Z" fill="#ffe800"/><path d="M34,86.9a7.9,7.9,0,0,1-.3,1.5c-.1.4-.2.7-.7.7s-.6-.2-.6-.5a11.9,11.9,0,0,1,.2-1.5.7.7,0,0,1,.8-.6C33.8,86.5,34,86.7,34,86.9Z" fill="#ffe800"/><path d="M38.4,90.4a2.1,2.1,0,0,1,1.1,1.8,2.2,2.2,0,0,1-2.4,2.1,3.5,3.5,0,0,1-1.5-.4c-.3-.2-.6-.4-.6-.7s.2-.7.6-.7.7.5,1.5.5,1-.3,1-.8-.4-.8-.9-1-2-.9-2-2.2a2.1,2.1,0,0,1,2.3-2c1,0,1.9.4,1.9,1a.7.7,0,0,1-.6.7c-.4,0-.7-.4-1.3-.4s-.8.3-.8.7S37.7,90,38.4,90.4Z" fill="#ffe800"/><path d="M47.6,94.1a4.8,4.8,0,0,1-1.9.3H44.4c-.5-.2-.6-.5-.6-.9V88.1c0-.5.2-.7.7-.8h1.1c1.6,0,2.6.5,2.6,1.7a1.6,1.6,0,0,1-1.1,1.6,1.9,1.9,0,0,1,.3,3.6ZM45.2,90h.3a1.6,1.6,0,0,0,1-.3.8.8,0,0,0,.3-.6c0-.6-.6-.8-1.1-.8h-.5Zm0,3.2h.5c.9,0,1.5-.3,1.5-1a1,1,0,0,0-.5-.9,2.6,2.6,0,0,0-1.2-.2h-.2Z" fill="#ffe800"/><path d="M53.5,87.1a3.5,3.5,0,0,1,3.7,3.7,3.5,3.5,0,0,1-3.7,3.7,3.5,3.5,0,0,1-3.7-3.7A3.5,3.5,0,0,1,53.5,87.1Zm0,6.1a2.4,2.4,0,1,0-2.2-2.4A2.1,2.1,0,0,0,53.5,93.2Z" fill="#ffe800"/><path d="M60.1,93.5a1,1,0,0,1-.1.6.9.9,0,0,1-1.2,0,.9.9,0,0,1-.1-.6V87.7c0-.4.2-.6.7-.6a1.2,1.2,0,0,1,1,.6l3.2,4V88a.9.9,0,0,1,.1-.6.9.9,0,0,1,1.2,0,.9.9,0,0,1,.1.6v5.8c0,.4-.2.6-.7.6s-.7-.2-1-.6l-3.3-4.1Z" fill="#ffe800"/><path d="M70.8,94.1a4.8,4.8,0,0,1-1.9.3H67.6c-.5-.2-.6-.5-.6-.9V88.1c0-.5.2-.7.7-.8h1.1c1.6,0,2.6.5,2.6,1.7a1.6,1.6,0,0,1-1.1,1.6,1.9,1.9,0,0,1,.3,3.6ZM68.5,90h.3a1.6,1.6,0,0,0,1-.3.8.8,0,0,0,.3-.6c0-.6-.6-.8-1.1-.8h-.5Zm0,3.2h.5c.9,0,1.5-.3,1.5-1a1,1,0,0,0-.5-.9,2.6,2.6,0,0,0-1.2-.2h-.2Z" fill="#ffe800"/><path d="M76.7,87.1a3.5,3.5,0,0,1,3.7,3.7,3.5,3.5,0,0,1-3.7,3.7A3.5,3.5,0,0,1,73,90.8,3.5,3.5,0,0,1,76.7,87.1Zm0,6.1a2.4,2.4,0,1,0-2.2-2.4A2.1,2.1,0,0,0,76.7,93.2Z" fill="#ffe800"/><path d="M83.3,93.5a1,1,0,0,1-.1.6.9.9,0,0,1-1.2,0,.9.9,0,0,1-.1-.6V87.7c0-.4.2-.6.7-.6a1.2,1.2,0,0,1,1,.6l3.2,4V88a.9.9,0,0,1,.1-.6.9.9,0,0,1,1.2,0,.9.9,0,0,1,.1.6v5.8c0,.4-.2.6-.7.6s-.7-.2-1-.6l-3.3-4.1Z" fill="#ffe800"/><path d="M93.1,90.4a2.1,2.1,0,0,1,1.1,1.8,2.2,2.2,0,0,1-2.4,2.1,3.4,3.4,0,0,1-1.5-.4c-.3-.2-.6-.4-.6-.7s.2-.7.6-.7.7.5,1.5.5,1-.3,1-.8-.4-.8-.9-1-2-.9-2-2.2a2.1,2.1,0,0,1,2.3-2c1,0,1.9.4,1.9,1a.7.7,0,0,1-.6.7c-.4,0-.7-.4-1.3-.4s-.8.3-.8.7S92.4,90,93.1,90.4Z" fill="#ffe800"/></svg>