<?xml version="1.0" encoding="utf-8"?>
<!-- Generator: Adobe Illustrator 21.0.0, SVG Export Plug-In . SVG Version: 6.00 Build 0)  -->
<svg version="1.1" id="Layer_1" xmlns="http://www.w3.org/2000/svg" xmlns:xlink="http://www.w3.org/1999/xlink" x="0px" y="0px"
	 viewBox="0 0 100 100" style="enable-background:new 0 0 100 100;" xml:space="preserve">
<style type="text/css">
	.st0{fill:#FF45AB;}
</style>
<path class="st0" d="M82.6,49.6c4.3-4.3,6.7-10,6.7-16.1s-2.4-11.8-6.7-16.1c-6.2-6.2-15-8-22.8-5.6c-0.1,0-0.2,0.1-0.3,0.1
	c-3.3,1.1-6.4,2.9-9.1,5.5c-6.2,6.2-8,15-5.6,22.8c0,0.1,0.1,0.2,0.1,0.3c1,3,2.6,5.9,4.9,8.3L11,87.6c-0.4,0.4-0.4,1,0,1.4
	c0.2,0.2,0.5,0.3,0.7,0.3s0.5-0.1,0.7-0.3l38.8-38.8c1.5,1.4,3.1,2.5,4.8,3.4c0,0,0,0,0,0c3.3,1.7,6.9,2.6,10.5,2.6
	c2.3,0,4.5-0.3,6.7-1c0.1,0,0.2,0,0.3-0.1C76.8,54,80,52.2,82.6,49.6z M81.2,48.1c-2.4,2.4-5.2,4-8.2,5c-8.1-2.6-9.8-7.3-9.7-10.7
	c0-2.7,1.1-5.1,2.1-6.6c0.3,2.3,1.5,5.3,3.8,7.6c1.5,1.5,4.2,3.4,8.3,3.4c1.7,0,3.6-0.3,5.8-1.1C82.6,46.6,81.9,47.4,81.2,48.1z
	 M51.9,48.1c0,0-0.1-0.1-0.2-0.1c-2.3-2.3-3.9-5.1-4.9-8c2.6-8.1,7.2-9.8,10.7-9.7c2.7,0,5.1,1.1,6.6,2.1c-2.3,0.3-5.3,1.5-7.6,3.8
	c-2.2,2.1-5.1,6.6-2.3,14c-0.8-0.6-1.5-1.2-2.2-1.8C52,48.2,51.9,48.2,51.9,48.1z M86.2,26.9c-2.6,8.1-7.3,9.8-10.7,9.8
	c-2.7,0-5.1-1.1-6.6-2.1c2.3-0.3,5.3-1.5,7.6-3.8c2.2-2.1,5.1-6.6,2.3-14c0.8,0.6,1.6,1.2,2.3,2C83.5,21.1,85.2,23.9,86.2,26.9z
	 M51.9,18.8c2.4-2.4,5.2-4,8.2-5c8.1,2.6,9.8,7.3,9.7,10.7c0,2.7-1.1,5.1-2.1,6.6c-0.3-2.3-1.5-5.3-3.8-7.6c-2.1-2.2-6.6-5.1-14-2.3
	C50.5,20.3,51.1,19.5,51.9,18.8z"/>
</svg>
