<svg style="position: absolute; width: 0; height: 0; overflow: hidden;" version="1.1" xmlns="http://www.w3.org/2000/svg" xmlns:xlink="http://www.w3.org/1999/xlink">
<defs>
<symbol id="icon-facebook-logo" viewBox="0 0 32 32">
<title>facebook-logo</title>
<path class="path1" fill="#fff" d="M0 0c0 10.667 0 21.333 0 32 5.867 0 11.733 0 17.6 0 0-2.756 0-5.511 0-8.267 0-1.289 0-2.578 0-3.822 0-0.089 0-0.133 0-0.178-0.089-0.133-0.222-0.222-0.489-0.222-0.622 0-1.2 0-1.822 0-0.267 0-0.4-0.044-0.444-0.311-0.044-0.044-0.044-0.133-0.044-0.222 0-1.289 0-2.578 0-3.911 0-0.311 0.133-0.4 0.4-0.4 0.533 0 1.022 0 1.556 0 0.8 0 0.8 0 0.8-0.8 0.044-1.244 0-2.489 0.178-3.733 0.311-2.356 1.733-3.778 4.044-4.178 0.4-0.089 0.8-0.133 1.2-0.133 1.422 0 2.889 0 4.4 0 0 0.044 0 0.089 0 0.133 0 0 0.044 0 0.044 0 0 0.489 0 0.933 0 1.378 0 0.889-0.044 1.822 0 2.711 0.044 0.533-0.178 0.667-0.667 0.622-0.711-0.044-1.378-0.044-2.089 0-1.022 0-1.378 0.4-1.422 1.378-0.044 0.8 0 1.644 0 2.533 1.378 0 2.711 0 4.178 0 0 0.044 0 0.089 0 0.133 0 0 0.044 0 0.044 0-0.178 1.6-0.311 3.111-0.489 4.711-1.244 0-2.444 0-3.733 0 0 0.267 0 0.444 0 0.667 0 3.733 0 7.511 0 11.289 0 0.178 0 0.4 0 0.622 2.933 0 5.822 0 8.756 0 0-10.667 0-21.333 0-32-10.667 0-21.333 0-32 0z"></path>
</symbol>
<symbol id="icon-logo" viewBox="0 0 32 32">
<title>logo</title>
<path class="path1" fill="#ffe800" d="M25.152 15.552c-0.544 0.832-1.408 1.632-2.72 2.464-0.496 0.332-1.065 0.633-1.665 0.874-0.799 0.278-1.023-0.010-1.279-0.426l-6.688-10.592c-0.288-0.448-0.352-0.8 0.256-1.344 0.486-0.394 1.028-0.784 1.593-1.142 1.671-1.066 4.327-2.026 5.799 0.31s-0.448 4.192-0.448 4.192 3.232-1.664 5.152 1.376c0.418 0.599 0.668 1.342 0.668 2.144s-0.25 1.545-0.676 2.156zM16.704 11.392l0.768-0.512c0.64-0.416 1.664-1.056 2.048-2.144 0.093-0.239 0.147-0.515 0.147-0.804 0-0.463-0.138-0.894-0.376-1.253-0.955-1.496-2.619-1.144-4.059-0.248-0.442 0.286-0.817 0.56-1.177 0.852zM20.64 17.632c0.458-0.201 0.846-0.415 1.214-0.659 2.53-1.614 3.074-3.245 2.050-4.846-0.498-0.872-1.422-1.45-2.481-1.45-0.084 0-0.167 0.004-0.249 0.011-1.269 0.063-2.389 0.767-3.221 1.279l-0.64 0.416z"></path>
<path class="path2" fill="#ffe800" d="M9.92 20.896c-1.92-3.008 0.96-5.248 0.96-5.248s-2.528 0.896-3.968-1.408 0.512-4.32 2.144-5.344c0.496-0.321 1.083-0.651 1.689-0.947 0.839-0.365 1.127-0.173 1.415 0.307l6.688 10.624c0.256 0.384 0.416 0.736-0.128 1.28-0.454 0.42-0.956 0.801-1.495 1.129-1.385 0.855-2.441 1.303-3.433 1.431-0.183 0.032-0.395 0.050-0.61 0.050-1.384 0-2.595-0.745-3.252-1.856zM11.040 9.184c-0.489 0.239-0.887 0.463-1.272 0.705-1.384 0.895-2.408 2.239-1.448 3.743 0.368 0.602 0.993 1.015 1.719 1.087 1.161 0.129 2.185-0.511 2.825-0.927l0.768-0.48zM14.272 14.304l-0.64 0.416c-0.832 0.512-1.952 1.216-2.56 2.368-0.244 0.411-0.389 0.907-0.389 1.436 0 0.613 0.193 1.18 0.523 1.645 1.018 1.591 2.714 1.815 5.274 0.215 0.422-0.262 0.788-0.536 1.128-0.839z"></path>
<path class="path3" fill="#ffe800" d="M9.28 16.512s-1.568 0.16-2.272-1.056l-6.528 0.448s3.264 1.088 2.24 2.464 0.384 1.632 1.184 2.016c0.337 0.159 0.729 0.263 1.143 0.288 0.393 0.032 0.937 0.288 0.745 1.472s0.192 1.184 0.544 1.248c0.891 0.064 1.639 0.619 1.978 1.393 0.131 0.376 0.203 0.792 0.203 1.224 0 0.070-0.002 0.139-0.006 0.208l0.768-5.322s-1.152-3.264 0-4.384z"></path>
<path class="path4" fill="#ffe800" d="M21.472 8.96s3.328-0.672 4.352 1.984l5.856-2.080s-4.032-0.64-2.976-2.176c0.576-0.832-0.192-1.6-0.992-2.112-0.525-0.322-1.134-0.576-1.782-0.728-0.746-0.2-1.93-0.776-1.866-2.76l-2.592 5.824s0.48 1.088 0 2.048z"></path>
<path class="path5" fill="#ffe800" d="M2.912 30.112c-0.16 0.062-0.345 0.098-0.539 0.098-0.024 0-0.049-0.001-0.073-0.002l-0.413 0c-0.16-0.064-0.192-0.16-0.192-0.288v-1.728c0-0.16 0.064-0.224 0.224-0.256h0.384c0.512 0 0.832 0.16 0.832 0.544 0 0.008 0.001 0.017 0.001 0.025 0 0.226-0.146 0.417-0.349 0.485 0.267 0.067 0.464 0.307 0.464 0.593 0 0.251-0.152 0.466-0.368 0.559zM2.176 28.8h0.064c0.006 0 0.014 0 0.021 0 0.112 0 0.216-0.036 0.301-0.097 0.055-0.045 0.092-0.113 0.095-0.191 0-0.192-0.192-0.256-0.352-0.256h-0.128zM2.176 29.824h0.16c0.288 0 0.48-0.096 0.48-0.32 0-0.003 0-0.007 0-0.011 0-0.118-0.064-0.221-0.159-0.276-0.099-0.044-0.212-0.069-0.332-0.069-0.030 0-0.060 0.002-0.089 0.005l-0.060-0z"></path>
<path class="path6" fill="#ffe800" d="M4.224 28.768h0.608c0.040 0.035 0.065 0.087 0.065 0.144 0 0.006-0 0.011-0.001 0.017 0 0.004 0.001 0.010 0.001 0.016 0 0.057-0.025 0.108-0.064 0.144l-0.608 0v0.672h0.832c0.040 0.035 0.065 0.087 0.065 0.144 0 0.006-0 0.011-0.001 0.017 0 0.004 0.001 0.010 0.001 0.016 0 0.057-0.025 0.108-0.064 0.144l-1.056 0c-0.16 0-0.224-0.064-0.224-0.224v-1.728c0-0.16 0.064-0.224 0.224-0.224h0.96c0.040 0.035 0.065 0.087 0.065 0.144 0 0.006-0 0.011-0.001 0.017 0 0.004 0.001 0.010 0.001 0.016 0 0.057-0.025 0.108-0.064 0.144l-0.736 0z"></path>
<path class="path7" fill="#ffe800" d="M6.848 29.6h-0.8l-0.16 0.384c-0.064 0.128-0.096 0.224-0.288 0.224s-0.192-0.064-0.192-0.128c0.003-0.047 0.014-0.091 0.033-0.13l0.735-1.79c0.064-0.16 0.128-0.256 0.288-0.256s0.224 0.096 0.288 0.256l0.704 1.792c0.017 0.037 0.029 0.081 0.032 0.127 0 0.097-0.064 0.129-0.224 0.129s-0.224-0.064-0.288-0.224zM6.176 29.216h0.512l-0.256-0.672z"></path>
<path class="path8" fill="#ffe800" d="M9.28 29.664c0.064-0.101 0.102-0.224 0.102-0.356 0-0.032-0.002-0.064-0.007-0.095l0-1.052c-0.003-0.015-0.005-0.033-0.005-0.051 0-0.052 0.014-0.1 0.037-0.142 0.052-0.039 0.119-0.063 0.191-0.063s0.139 0.024 0.193 0.065c0.022 0.040 0.036 0.088 0.036 0.14 0 0.018-0.002 0.036-0.005 0.053l0 1.022c0.004 0.036 0.007 0.077 0.007 0.119 0 0.232-0.075 0.446-0.201 0.62-0.173 0.178-0.418 0.291-0.689 0.291-0.038 0-0.076-0.002-0.113-0.007-0.028 0.004-0.066 0.007-0.104 0.007-0.271 0-0.517-0.113-0.691-0.294-0.125-0.168-0.2-0.379-0.2-0.608 0-0.045 0.003-0.090 0.009-0.133l-0.001-1.019c-0.003-0.015-0.005-0.033-0.005-0.051 0-0.052 0.014-0.1 0.037-0.142 0.040-0.040 0.096-0.065 0.158-0.065 0.012 0 0.023 0.001 0.034 0.003 0.009-0.002 0.020-0.003 0.032-0.003 0.062 0 0.119 0.025 0.159 0.066 0.023 0.041 0.037 0.089 0.037 0.141 0 0.018-0.002 0.036-0.005 0.053l0 1.054c-0.004 0.028-0.006 0.059-0.006 0.092 0 0.132 0.038 0.255 0.104 0.359 0.092 0.097 0.225 0.159 0.372 0.159 0.015 0 0.030-0.001 0.044-0.002 0.028 0.006 0.062 0.010 0.097 0.010 0.151 0 0.287-0.065 0.38-0.169z"></path>
<path class="path9" fill="#ffe800" d="M10.88 27.808c-0.018 0.179-0.052 0.342-0.101 0.498-0.027 0.11-0.059 0.206-0.219 0.206s-0.192-0.064-0.192-0.16c0.013-0.18 0.035-0.344 0.068-0.505 0.011-0.086 0.105-0.17 0.218-0.17 0.012 0 0.024 0.001 0.035 0.003 0.127-0 0.191 0.064 0.191 0.128z"></path>
<path class="path10" fill="#ffe800" d="M12.288 28.928c0.207 0.114 0.346 0.328 0.352 0.575-0.016 0.377-0.325 0.676-0.703 0.676-0.023 0-0.045-0.001-0.067-0.003-0.174-0.006-0.338-0.053-0.483-0.131-0.090-0.061-0.186-0.125-0.186-0.221s0.064-0.224 0.192-0.224 0.224 0.16 0.48 0.16 0.32-0.096 0.32-0.256-0.128-0.256-0.288-0.32-0.64-0.288-0.64-0.704c0.016-0.358 0.31-0.643 0.671-0.643 0.023 0 0.045 0.001 0.067 0.003 0.317-0 0.605 0.128 0.605 0.32 0 0.001 0 0.002 0 0.002 0 0.112-0.083 0.206-0.191 0.222-0.129 0-0.225-0.128-0.417-0.128s-0.256 0.096-0.256 0.224 0.32 0.32 0.544 0.448z"></path>
<path class="path11" fill="#ffe800" d="M15.232 30.112c-0.16 0.062-0.345 0.098-0.539 0.098-0.024 0-0.049-0.001-0.073-0.002l-0.413 0c-0.16-0.064-0.192-0.16-0.192-0.288v-1.728c0-0.16 0.064-0.224 0.224-0.256h0.352c0.512 0 0.832 0.16 0.832 0.544 0 0.008 0.001 0.017 0.001 0.025 0 0.226-0.146 0.417-0.349 0.485 0.267 0.067 0.464 0.307 0.464 0.593 0 0.251-0.152 0.466-0.368 0.559zM14.464 28.8h0.096c0.006 0 0.014 0 0.021 0 0.112 0 0.216-0.036 0.301-0.097 0.055-0.045 0.092-0.113 0.095-0.191 0-0.192-0.192-0.256-0.352-0.256h-0.16zM14.464 29.824h0.16c0.288 0 0.48-0.096 0.48-0.32 0-0.003 0-0.007 0-0.011 0-0.118-0.064-0.221-0.159-0.276-0.097-0.043-0.209-0.067-0.326-0.067-0.021 0-0.041 0.001-0.062 0.002l-0.061-0z"></path>
<path class="path12" fill="#ffe800" d="M17.12 27.872c0.020-0.001 0.043-0.002 0.066-0.002 0.619 0 1.12 0.501 1.12 1.12 0 0.023-0.001 0.046-0.002 0.069 0.001 0.017 0.002 0.040 0.002 0.063 0 0.619-0.501 1.12-1.12 1.12-0.023 0-0.046-0.001-0.069-0.002-0.017 0.001-0.040 0.002-0.063 0.002-0.619 0-1.12-0.501-1.12-1.12 0-0.023 0.001-0.046 0.002-0.069-0.001-0.017-0.002-0.040-0.002-0.063 0-0.619 0.501-1.12 1.12-1.12 0.023 0 0.046 0.001 0.069 0.002zM17.12 29.824c0.019 0.002 0.041 0.003 0.064 0.003 0.424 0 0.768-0.344 0.768-0.768s-0.344-0.768-0.768-0.768c-0.423 0-0.766 0.342-0.768 0.765-0.005 0.029-0.007 0.063-0.007 0.097 0 0.371 0.301 0.672 0.672 0.672 0.014 0 0.027-0 0.041-0.001z"></path>
<path class="path13" fill="#ffe800" d="M19.232 29.92c0.002 0.014 0.003 0.030 0.003 0.046 0 0.053-0.013 0.104-0.036 0.148-0.050 0.044-0.117 0.072-0.191 0.072s-0.141-0.028-0.192-0.074c-0.023-0.040-0.036-0.089-0.036-0.14 0-0.018 0.002-0.036 0.005-0.053l-0-1.854c0-0.128 0.064-0.192 0.224-0.192 0.137 0.005 0.255 0.080 0.319 0.19l1.025 1.282v-1.184c-0.003-0.015-0.005-0.033-0.005-0.051 0-0.052 0.014-0.1 0.037-0.142 0.050-0.044 0.117-0.072 0.191-0.072s0.141 0.028 0.192 0.074c0.023 0.040 0.036 0.089 0.036 0.14 0 0.018-0.002 0.036-0.005 0.053l0 1.854c0 0.128-0.064 0.192-0.224 0.192s-0.224-0.064-0.32-0.192l-1.056-1.312z"></path>
<path class="path14" fill="#ffe800" d="M22.656 30.112c-0.16 0.062-0.345 0.098-0.539 0.098-0.024 0-0.049-0.001-0.073-0.002l-0.413 0c-0.16-0.064-0.192-0.16-0.192-0.288v-1.728c0-0.16 0.064-0.224 0.224-0.256h0.352c0.512 0 0.832 0.16 0.832 0.544 0 0.008 0.001 0.017 0.001 0.025 0 0.226-0.146 0.417-0.349 0.485 0.267 0.067 0.464 0.307 0.464 0.593 0 0.251-0.152 0.466-0.368 0.559zM21.92 28.8h0.096c0.006 0 0.014 0 0.021 0 0.112 0 0.216-0.036 0.301-0.097 0.055-0.045 0.092-0.113 0.095-0.191 0-0.192-0.192-0.256-0.352-0.256h-0.16zM21.92 29.824h0.16c0.288 0 0.48-0.096 0.48-0.32 0-0.003 0-0.007 0-0.011 0-0.118-0.064-0.221-0.159-0.276-0.097-0.043-0.209-0.067-0.326-0.067-0.021 0-0.041 0.001-0.062 0.002l-0.061-0z"></path>
<path class="path15" fill="#ffe800" d="M24.544 27.872c0.020-0.001 0.043-0.002 0.066-0.002 0.619 0 1.12 0.501 1.12 1.12 0 0.023-0.001 0.046-0.002 0.069 0.001 0.017 0.002 0.040 0.002 0.063 0 0.619-0.501 1.12-1.12 1.12-0.023 0-0.046-0.001-0.069-0.002-0.017 0.001-0.040 0.002-0.063 0.002-0.619 0-1.12-0.501-1.12-1.12 0-0.023 0.001-0.046 0.002-0.069-0.001-0.017-0.002-0.040-0.002-0.063 0-0.619 0.501-1.12 1.12-1.12 0.023 0 0.046 0.001 0.069 0.002zM24.544 29.824c0.019 0.002 0.041 0.003 0.064 0.003 0.424 0 0.768-0.344 0.768-0.768s-0.344-0.768-0.768-0.768c-0.423 0-0.766 0.342-0.768 0.765-0.005 0.029-0.007 0.063-0.007 0.097 0 0.371 0.301 0.672 0.672 0.672 0.014 0 0.027-0 0.041-0.001z"></path>
<path class="path16" fill="#ffe800" d="M26.656 29.92c0.002 0.014 0.003 0.030 0.003 0.046 0 0.053-0.013 0.104-0.036 0.148-0.050 0.044-0.117 0.072-0.191 0.072s-0.141-0.028-0.192-0.074c-0.023-0.040-0.036-0.089-0.036-0.14 0-0.018 0.002-0.036 0.005-0.053l-0-1.854c0-0.128 0.064-0.192 0.224-0.192 0.137 0.005 0.255 0.080 0.319 0.19l1.025 1.282v-1.184c-0.003-0.015-0.005-0.033-0.005-0.051 0-0.052 0.014-0.1 0.037-0.142 0.050-0.044 0.117-0.072 0.191-0.072s0.141 0.028 0.192 0.074c0.023 0.040 0.036 0.089 0.036 0.14 0 0.018-0.002 0.036-0.005 0.053l0 1.854c0 0.128-0.064 0.192-0.224 0.192s-0.224-0.064-0.32-0.192l-1.056-1.312z"></path>
<path class="path17" fill="#ffe800" d="M29.792 28.928c0.207 0.114 0.346 0.328 0.352 0.575-0.016 0.377-0.325 0.676-0.703 0.676-0.023 0-0.045-0.001-0.067-0.003-0.174-0.005-0.338-0.052-0.483-0.131-0.090-0.061-0.186-0.125-0.186-0.221s0.064-0.224 0.192-0.224 0.224 0.16 0.48 0.16 0.32-0.096 0.32-0.256-0.128-0.256-0.288-0.32-0.64-0.288-0.64-0.704c0.016-0.358 0.31-0.643 0.671-0.643 0.023 0 0.045 0.001 0.067 0.003 0.317-0 0.605 0.128 0.605 0.32 0 0.001 0 0.002 0 0.002 0 0.112-0.083 0.206-0.191 0.222-0.129 0-0.225-0.128-0.417-0.128s-0.256 0.096-0.256 0.224 0.32 0.32 0.544 0.448z"></path>
</symbol>
<symbol id="icon-logo1" viewBox="0 0 32 32">
<title>logo1</title>
<path class="path1" fill="#ff45ab" d="M26.432 15.872c1.376-1.376 2.144-3.2 2.144-5.152s-0.768-3.776-2.144-5.152c-1.984-1.984-4.8-2.56-7.296-1.792-0.032 0-0.064 0.032-0.096 0.032-1.056 0.352-2.048 0.928-2.912 1.76-1.984 1.984-2.56 4.8-1.792 7.296 0 0.032 0.032 0.064 0.032 0.096 0.32 0.96 0.832 1.888 1.568 2.656l-12.416 12.416c-0.128 0.128-0.128 0.32 0 0.448 0.064 0.064 0.16 0.096 0.224 0.096s0.16-0.032 0.224-0.096l12.416-12.416c0.48 0.448 0.992 0.8 1.536 1.088 0 0 0 0 0 0 1.056 0.544 2.208 0.832 3.36 0.832 0.736 0 1.44-0.096 2.144-0.32 0.032 0 0.064 0 0.096-0.032 1.056-0.352 2.080-0.928 2.912-1.76zM25.984 15.392c-0.768 0.768-1.664 1.28-2.624 1.6-2.592-0.832-3.136-2.336-3.104-3.424 0-0.864 0.352-1.632 0.672-2.112 0.096 0.736 0.48 1.696 1.216 2.432 0.48 0.48 1.344 1.088 2.656 1.088 0.544 0 1.152-0.096 1.856-0.352-0.224 0.288-0.448 0.544-0.672 0.768zM16.608 15.392c0 0-0.032-0.032-0.064-0.032-0.736-0.736-1.248-1.632-1.568-2.56 0.832-2.592 2.304-3.136 3.424-3.104 0.864 0 1.632 0.352 2.112 0.672-0.736 0.096-1.696 0.48-2.432 1.216-0.704 0.672-1.632 2.112-0.736 4.48-0.256-0.192-0.48-0.384-0.704-0.576 0-0.064-0.032-0.064-0.032-0.096zM27.584 8.608c-0.832 2.592-2.336 3.136-3.424 3.136-0.864 0-1.632-0.352-2.112-0.672 0.736-0.096 1.696-0.48 2.432-1.216 0.704-0.672 1.632-2.112 0.736-4.48 0.256 0.192 0.512 0.384 0.736 0.64 0.768 0.736 1.312 1.632 1.632 2.592zM16.608 6.016c0.768-0.768 1.664-1.28 2.624-1.6 2.592 0.832 3.136 2.336 3.104 3.424 0 0.864-0.352 1.632-0.672 2.112-0.096-0.736-0.48-1.696-1.216-2.432-0.672-0.704-2.112-1.632-4.48-0.736 0.192-0.288 0.384-0.544 0.64-0.768z"></path>
</symbol>
<symbol id="icon-nav-icon-close" viewBox="0 0 32 32">
<title>nav-icon-close</title>
<path class="path1" fill="#fff" d="M23.387 26.675l-17.95-17.95c-0.875-0.875-0.875-2.3 0-3.175v0c0.875-0.875 2.3-0.875 3.175 0l17.95 17.95c0.875 0.875 0.875 2.3 0 3.175v0c-0.875 0.875-2.3 0.875-3.175 0zM26.563 8.75l-17.95 17.95c-0.875 0.875-2.3 0.875-3.175 0v0c-0.875-0.875-0.875-2.3 0-3.175l17.95-17.95c0.875-0.875 2.3-0.875 3.175 0v0c0.875 0.875 0.875 2.3 0 3.175z"></path>
</symbol>
<symbol id="icon-nav-icon" viewBox="0 0 32 32">
<title>nav-icon</title>
<path class="path1" fill="#fff" d="M3.3 3.362h25.4c1.238 0 2.238 1 2.238 2.237v0c0 1.237-1 2.237-2.238 2.237h-25.4c-1.237 0-2.237-1-2.237-2.237v0c0-1.237 1-2.237 2.237-2.237zM3.3 13.825h25.4c1.238 0 2.238 1 2.238 2.238v0c0 1.238-1 2.238-2.238 2.238h-25.4c-1.237 0-2.237-1-2.237-2.238v0c0-1.238 1-2.238 2.237-2.238zM3.3 24.275h25.4c1.238 0 2.238 1 2.238 2.238v0c0 1.238-1 2.238-2.238 2.238h-25.4c-1.237 0-2.237-1-2.237-2.238v0c0-1.238 1-2.238 2.237-2.238z"></path>
</symbol>
<symbol id="icon-snapchat-logo" viewBox="0 0 32 32">
<title>snapchat-logo</title>
<path class="path1" fill="#fff" d="M29.689 23.422c-0.178 0.311-0.489 0.444-0.756 0.533-0.756 0.311-1.556 0.489-2.311 0.578-0.444 0.044-0.711 0.311-0.8 0.711-0.044 0.133-0.089 0.267-0.089 0.4-0.178 0.8-0.178 0.8-1.022 0.667-1.244-0.222-2.444-0.267-3.644 0.311-0.622 0.311-1.2 0.711-1.733 1.156-2 1.511-4.622 1.511-6.622 0-0.756-0.578-1.556-1.2-2.533-1.422-1.067-0.222-2.089-0.178-3.111 0.044-0.444 0.089-0.622-0.044-0.667-0.444-0.044-0.178-0.089-0.356-0.133-0.533-0.178-0.667-0.4-0.844-1.111-0.889-0.8-0.089-1.6-0.311-2.356-0.667-0.178-0.089-0.356-0.222-0.444-0.4 0.178-0.133 0.4-0.133 0.578-0.178 2.844-0.844 4.578-2.8 5.689-5.422 0.311-0.756 0.044-1.467-0.667-1.911-0.356-0.222-0.756-0.4-1.2-0.489-0.356-0.133-0.756-0.222-1.067-0.444-0.222-0.133-0.578-0.311-0.4-0.667 0.089-0.267 0.622-0.4 0.933-0.311 0.267 0.089 0.533 0.222 0.844 0.311 0.4 0.133 0.844 0.178 1.289 0.044 0.533-0.178 0.667-0.311 0.622-0.889-0.089-1.378-0.222-2.756-0.133-4.133 0.222-2.711 1.689-4.533 4.133-5.511 2.667-1.022 5.289-0.889 7.689 0.844 1.733 1.244 2.622 3.022 2.622 5.2 0 1.2-0.044 2.4-0.178 3.6-0.044 0.489 0.178 0.711 0.578 0.844 0.667 0.222 1.244 0 1.822-0.267 0.356-0.133 0.667-0.133 1.022 0.044 0.356 0.222 0.4 0.444 0.089 0.711-0.356 0.311-0.844 0.444-1.289 0.622-0.444 0.133-0.844 0.267-1.244 0.533-0.667 0.444-0.978 1.111-0.667 1.911 1.156 2.711 2.933 4.711 5.867 5.467 0.089-0.044 0.222 0 0.4 0.044z"></path>
</symbol>
<symbol id="icon-twitter-logo" viewBox="0 0 32 32">
<title>twitter-logo</title>
<path class="path1" fill="#fff" d="M4.533 13.067c-0.133-0.311-0.356-0.444-0.533-0.622-1.867-1.822-2.444-4.489-1.422-6.889 0.267-0.667 0.356-0.711 0.844-0.178 2.711 3.022 6.089 4.933 10.133 5.689 0.444 0.089 0.933 0.133 1.422 0.178 0.667 0.089 0.711 0.044 0.667-0.667-0.178-2.311 0.622-4.267 2.489-5.689 2.311-1.778 5.511-1.689 7.733 0.222 0.444 0.356 0.8 0.444 1.333 0.311 0.844-0.267 1.644-0.578 2.444-0.933 0.178-0.089 0.4-0.311 0.533-0.133 0.133 0.133-0.089 0.4-0.178 0.578-0.4 0.844-0.978 1.511-1.689 2.133-0.133 0.089-0.311 0.178-0.356 0.4 1.022-0.089 2-0.444 2.978-0.711-0.356 0.711-0.844 1.378-1.467 1.822-1.111 0.756-1.378 1.733-1.467 3.067-0.356 5.244-2.578 9.6-6.667 12.933-2.8 2.311-6.089 3.467-9.733 3.689-3.333 0.222-6.444-0.444-9.378-1.956-0.356-0.178-0.711-0.4-1.067-0.711 1.022 0.089 2.044-0.044 3.022-0.178 1.911-0.267 3.6-0.978 5.2-2.044 0.133-0.089 0.356-0.178 0.311-0.356s-0.311-0.133-0.444-0.133c-2.133-0.444-3.778-1.511-4.711-3.511-0.267-0.622-0.222-0.667 0.444-0.667 0.533 0 1.111 0.044 1.689-0.133-0.178-0.222-0.444-0.267-0.622-0.356-2.267-0.978-3.6-2.622-3.956-5.067-0.089-0.667 0-0.756 0.667-0.489 0.533 0.222 1.111 0.444 1.778 0.4z"></path>
</symbol>
</defs>
</svg>
