<?xml version="1.0" encoding="utf-8"?>
<!-- Generated by IcoMoon.io -->
<!DOCTYPE svg PUBLIC "-//W3C//DTD SVG 1.1//EN" "http://www.w3.org/Graphics/SVG/1.1/DTD/svg11.dtd">
<svg version="1.1" xmlns="http://www.w3.org/2000/svg" xmlns:xlink="http://www.w3.org/1999/xlink" width="32" height="32" viewBox="0 0 32 32">
<path fill="#fff" d="M0 0c0 10.667 0 21.333 0 32 5.867 0 11.733 0 17.6 0 0-2.756 0-5.511 0-8.267 0-1.289 0-2.578 0-3.822 0-0.089 0-0.133 0-0.178-0.089-0.133-0.222-0.222-0.489-0.222-0.622 0-1.2 0-1.822 0-0.267 0-0.4-0.044-0.444-0.311-0.044-0.044-0.044-0.133-0.044-0.222 0-1.289 0-2.578 0-3.911 0-0.311 0.133-0.4 0.4-0.4 0.533 0 1.022 0 1.556 0 0.8 0 0.8 0 0.8-0.8 0.044-1.244 0-2.489 0.178-3.733 0.311-2.356 1.733-3.778 4.044-4.178 0.4-0.089 0.8-0.133 1.2-0.133 1.422 0 2.889 0 4.4 0 0 0.044 0 0.089 0 0.133 0 0 0.044 0 0.044 0 0 0.489 0 0.933 0 1.378 0 0.889-0.044 1.822 0 2.711 0.044 0.533-0.178 0.667-0.667 0.622-0.711-0.044-1.378-0.044-2.089 0-1.022 0-1.378 0.4-1.422 1.378-0.044 0.8 0 1.644 0 2.533 1.378 0 2.711 0 4.178 0 0 0.044 0 0.089 0 0.133 0 0 0.044 0 0.044 0-0.178 1.6-0.311 3.111-0.489 4.711-1.244 0-2.444 0-3.733 0 0 0.267 0 0.444 0 0.667 0 3.733 0 7.511 0 11.289 0 0.178 0 0.4 0 0.622 2.933 0 5.822 0 8.756 0 0-10.667 0-21.333 0-32-10.667 0-21.333 0-32 0z"></path>
</svg>
