<?xml version="1.0" encoding="utf-8"?>
<!-- Generated by IcoMoon.io -->
<!DOCTYPE svg PUBLIC "-//W3C//DTD SVG 1.1//EN" "http://www.w3.org/Graphics/SVG/1.1/DTD/svg11.dtd">
<svg version="1.1" xmlns="http://www.w3.org/2000/svg" xmlns:xlink="http://www.w3.org/1999/xlink" width="32" height="32" viewBox="0 0 32 32">
<path fill="#ff45ab" d="M26.432 15.872c1.376-1.376 2.144-3.2 2.144-5.152s-0.768-3.776-2.144-5.152c-1.984-1.984-4.8-2.56-7.296-1.792-0.032 0-0.064 0.032-0.096 0.032-1.056 0.352-2.048 0.928-2.912 1.76-1.984 1.984-2.56 4.8-1.792 7.296 0 0.032 0.032 0.064 0.032 0.096 0.32 0.96 0.832 1.888 1.568 2.656l-12.416 12.416c-0.128 0.128-0.128 0.32 0 0.448 0.064 0.064 0.16 0.096 0.224 0.096s0.16-0.032 0.224-0.096l12.416-12.416c0.48 0.448 0.992 0.8 1.536 1.088 0 0 0 0 0 0 1.056 0.544 2.208 0.832 3.36 0.832 0.736 0 1.44-0.096 2.144-0.32 0.032 0 0.064 0 0.096-0.032 1.056-0.352 2.080-0.928 2.912-1.76zM25.984 15.392c-0.768 0.768-1.664 1.28-2.624 1.6-2.592-0.832-3.136-2.336-3.104-3.424 0-0.864 0.352-1.632 0.672-2.112 0.096 0.736 0.48 1.696 1.216 2.432 0.48 0.48 1.344 1.088 2.656 1.088 0.544 0 1.152-0.096 1.856-0.352-0.224 0.288-0.448 0.544-0.672 0.768zM16.608 15.392c0 0-0.032-0.032-0.064-0.032-0.736-0.736-1.248-1.632-1.568-2.56 0.832-2.592 2.304-3.136 3.424-3.104 0.864 0 1.632 0.352 2.112 0.672-0.736 0.096-1.696 0.48-2.432 1.216-0.704 0.672-1.632 2.112-0.736 4.48-0.256-0.192-0.48-0.384-0.704-0.576 0-0.064-0.032-0.064-0.032-0.096zM27.584 8.608c-0.832 2.592-2.336 3.136-3.424 3.136-0.864 0-1.632-0.352-2.112-0.672 0.736-0.096 1.696-0.48 2.432-1.216 0.704-0.672 1.632-2.112 0.736-4.48 0.256 0.192 0.512 0.384 0.736 0.64 0.768 0.736 1.312 1.632 1.632 2.592zM16.608 6.016c0.768-0.768 1.664-1.28 2.624-1.6 2.592 0.832 3.136 2.336 3.104 3.424 0 0.864-0.352 1.632-0.672 2.112-0.096-0.736-0.48-1.696-1.216-2.432-0.672-0.704-2.112-1.632-4.48-0.736 0.192-0.288 0.384-0.544 0.64-0.768z"></path>
</svg>
