<?xml version="1.0" encoding="utf-8"?>
<!-- Generator: Adobe Illustrator 21.0.0, SVG Export Plug-In . SVG Version: 6.00 Build 0)  -->
<svg version="1.1" id="Layer_1" xmlns="http://www.w3.org/2000/svg" xmlns:xlink="http://www.w3.org/1999/xlink" x="0px" y="0px"
	 viewBox="0 0 32 32" style="enable-background:new 0 0 32 32;" xml:space="preserve">
<style type="text/css">
	.st0{fill:#FF66FF;}
</style>
<path class="st0" d="M25.2,15.6c-0.5,0.8-1.4,1.6-2.7,2.5c-0.5,0.3-1.1,0.6-1.7,0.9c-0.8,0.3-1,0-1.3-0.4L12.8,7.9
	c-0.3-0.4-0.4-0.8,0.3-1.3c0.5-0.4,1-0.8,1.6-1.1c1.7-1.1,4.3-2,5.8,0.3S20,9.9,20,9.9s3.2-1.7,5.2,1.4c0.4,0.6,0.7,1.3,0.7,2.1
	S25.6,15,25.2,15.6L25.2,15.6z M16.7,11.4l0.8-0.5c0.6-0.4,1.7-1.1,2-2.1c0.1-0.2,0.1-0.5,0.1-0.8c0-0.5-0.1-0.9-0.4-1.3
	c-1-1.5-2.6-1.1-4.1-0.2c-0.4,0.3-0.8,0.6-1.2,0.9L16.7,11.4z M20.6,17.6c0.5-0.2,0.8-0.4,1.2-0.7c2.5-1.6,3.1-3.2,2-4.8
	c-0.5-0.9-1.4-1.4-2.5-1.4c-0.1,0-0.2,0-0.2,0c-1.3,0.1-2.4,0.8-3.2,1.3l-0.6,0.4L20.6,17.6z"/>
<path class="st0" d="M9.9,20.9c-1.9-3,1-5.2,1-5.2s-2.5,0.9-4-1.4s0.5-4.3,2.1-5.3c0.5-0.3,1.1-0.7,1.7-0.9c0.8-0.4,1.1-0.2,1.4,0.3
	l6.7,10.6c0.3,0.4,0.4,0.7-0.1,1.3c-0.5,0.4-1,0.8-1.5,1.1c-1.4,0.9-2.4,1.3-3.4,1.4c-0.2,0-0.4,0-0.6,0C11.8,22.8,10.6,22,9.9,20.9
	L9.9,20.9z M11,9.2c-0.5,0.2-0.9,0.5-1.3,0.7c-1.4,0.9-2.4,2.2-1.4,3.7c0.4,0.6,1,1,1.7,1.1c1.2,0.1,2.2-0.5,2.8-0.9l0.8-0.5L11,9.2
	z M14.3,14.3l-0.6,0.4c-0.8,0.5-2,1.2-2.6,2.4c-0.2,0.4-0.4,0.9-0.4,1.4c0,0.6,0.2,1.2,0.5,1.6c1,1.6,2.7,1.8,5.3,0.2
	c0.4-0.3,0.8-0.5,1.1-0.8L14.3,14.3z"/>
<path class="st0" d="M9.3,16.5c0,0-1.6,0.2-2.3-1.1l-6.5,0.4c0,0,3.3,1.1,2.2,2.5s0.4,1.6,1.2,2c0.3,0.2,0.7,0.3,1.1,0.3
	c0.4,0,0.9,0.3,0.7,1.5s0.2,1.2,0.5,1.2c0.9,0.1,1.6,0.6,2,1.4c0.1,0.4,0.2,0.8,0.2,1.2c0,0.1,0,0.1,0,0.2l0.8-5.3
	C9.3,20.9,8.1,17.6,9.3,16.5L9.3,16.5z"/>
<path class="st0" d="M21.5,9c0,0,3.3-0.7,4.4,2l5.9-2.1c0,0-4-0.6-3-2.2c0.6-0.8-0.2-1.6-1-2.1c-0.5-0.3-1.1-0.6-1.8-0.7
	c-0.7-0.2-1.9-0.8-1.9-2.8l-2.6,5.8C21.5,6.9,22,8,21.5,9z"/>
<path class="st0" d="M2.9,30.1c-0.2,0.1-0.3,0.1-0.5,0.1c0,0,0,0-0.1,0H1.9c-0.2-0.1-0.2-0.2-0.2-0.3v-1.7c0-0.2,0.1-0.2,0.2-0.3
	h0.4c0.5,0,0.8,0.2,0.8,0.5c0,0,0,0,0,0c0,0.2-0.1,0.4-0.3,0.5c0.3,0.1,0.5,0.3,0.5,0.6C3.3,29.8,3.1,30,2.9,30.1L2.9,30.1z
	 M2.2,28.8L2.2,28.8C2.2,28.8,2.3,28.8,2.2,28.8c0.2,0,0.3,0,0.4-0.1c0.1,0,0.1-0.1,0.1-0.2c0-0.2-0.2-0.3-0.4-0.3H2.2L2.2,28.8z
	 M2.2,29.8h0.2c0.3,0,0.5-0.1,0.5-0.3c0,0,0,0,0,0c0-0.1-0.1-0.2-0.2-0.3c-0.1,0-0.2-0.1-0.3-0.1c0,0-0.1,0-0.1,0H2.2L2.2,29.8z"/>
<path class="st0" d="M4.2,28.8h0.6c0,0,0.1,0.1,0.1,0.1c0,0,0,0,0,0c0,0,0,0,0,0c0,0.1,0,0.1-0.1,0.1H4.2v0.7h0.8
	c0,0,0.1,0.1,0.1,0.1c0,0,0,0,0,0c0,0,0,0,0,0c0,0.1,0,0.1-0.1,0.1H4c-0.2,0-0.2-0.1-0.2-0.2v-1.7c0-0.2,0.1-0.2,0.2-0.2h1
	C5,27.9,5,28,5,28c0,0,0,0,0,0c0,0,0,0,0,0c0,0.1,0,0.1-0.1,0.1H4.2L4.2,28.8z"/>
<path class="st0" d="M6.8,29.6H6L5.9,30c-0.1,0.1-0.1,0.2-0.3,0.2s-0.2-0.1-0.2-0.1c0,0,0-0.1,0-0.1l0.7-1.8
	c0.1-0.2,0.1-0.3,0.3-0.3s0.2,0.1,0.3,0.3L7.5,30c0,0,0,0.1,0,0.1c0,0.1-0.1,0.1-0.2,0.1S7,30.1,7,30L6.8,29.6z M6.2,29.2h0.5
	l-0.3-0.7L6.2,29.2z"/>
<path class="st0" d="M9.3,29.7c0.1-0.1,0.1-0.2,0.1-0.4c0,0,0-0.1,0-0.1v-1.1c0,0,0,0,0-0.1c0-0.1,0-0.1,0-0.1
	c0.1,0,0.1-0.1,0.2-0.1s0.1,0,0.2,0.1c0,0,0,0.1,0,0.1c0,0,0,0,0,0.1v1c0,0,0,0.1,0,0.1c0,0.2-0.1,0.4-0.2,0.6
	c-0.2,0.2-0.4,0.3-0.7,0.3c0,0-0.1,0-0.1,0c0,0-0.1,0-0.1,0c-0.3,0-0.5-0.1-0.7-0.3c-0.1-0.2-0.2-0.4-0.2-0.6c0,0,0-0.1,0-0.1l0-1
	c0,0,0,0,0-0.1c0-0.1,0-0.1,0-0.1c0,0,0.1-0.1,0.2-0.1c0,0,0,0,0,0c0,0,0,0,0,0c0.1,0,0.1,0,0.2,0.1c0,0,0,0.1,0,0.1c0,0,0,0,0,0.1
	v1.1c0,0,0,0.1,0,0.1c0,0.1,0,0.3,0.1,0.4c0.1,0.1,0.2,0.2,0.4,0.2c0,0,0,0,0,0c0,0,0.1,0,0.1,0C9,29.8,9.2,29.8,9.3,29.7L9.3,29.7z
	"/>
<path class="st0" d="M10.9,27.8c0,0.2-0.1,0.3-0.1,0.5c0,0.1-0.1,0.2-0.2,0.2s-0.2-0.1-0.2-0.2c0-0.2,0-0.3,0.1-0.5
	c0-0.1,0.1-0.2,0.2-0.2c0,0,0,0,0,0C10.8,27.7,10.9,27.7,10.9,27.8z"/>
<path class="st0" d="M12.3,28.9c0.2,0.1,0.3,0.3,0.4,0.6c0,0.4-0.3,0.7-0.7,0.7c0,0,0,0-0.1,0c-0.2,0-0.3-0.1-0.5-0.1
	c-0.1-0.1-0.2-0.1-0.2-0.2s0.1-0.2,0.2-0.2s0.2,0.2,0.5,0.2s0.3-0.1,0.3-0.3s-0.1-0.3-0.3-0.3s-0.6-0.3-0.6-0.7
	c0-0.4,0.3-0.6,0.7-0.6c0,0,0,0,0.1,0c0.3,0,0.6,0.1,0.6,0.3c0,0,0,0,0,0c0,0.1-0.1,0.2-0.2,0.2c-0.1,0-0.2-0.1-0.4-0.1
	s-0.3,0.1-0.3,0.2S12.1,28.8,12.3,28.9z"/>
<path class="st0" d="M15.2,30.1c-0.2,0.1-0.3,0.1-0.5,0.1c0,0,0,0-0.1,0h-0.4C14,30.1,14,30,14,29.9v-1.7c0-0.2,0.1-0.2,0.2-0.3h0.4
	c0.5,0,0.8,0.2,0.8,0.5c0,0,0,0,0,0c0,0.2-0.1,0.4-0.3,0.5c0.3,0.1,0.5,0.3,0.5,0.6C15.5,29.8,15.4,30,15.2,30.1L15.2,30.1z
	 M14.5,28.8L14.5,28.8c0.1,0,0.1,0,0.1,0c0.1,0,0.2,0,0.3-0.1c0.1,0,0.1-0.1,0.1-0.2c0-0.2-0.2-0.3-0.4-0.3h-0.2L14.5,28.8z
	 M14.5,29.8h0.2c0.3,0,0.5-0.1,0.5-0.3c0,0,0,0,0,0c0-0.1-0.1-0.2-0.2-0.3c-0.1,0-0.2-0.1-0.3-0.1c0,0,0,0-0.1,0h-0.1L14.5,29.8z"/>
<path class="st0" d="M17.1,27.9C17.1,27.9,17.2,27.9,17.1,27.9c0.7,0,1.2,0.5,1.2,1.1c0,0,0,0,0,0.1c0,0,0,0,0,0.1
	c0,0.6-0.5,1.1-1.1,1.1c0,0,0,0-0.1,0c0,0,0,0-0.1,0c-0.6,0-1.1-0.5-1.1-1.1c0,0,0,0,0-0.1c0,0,0,0,0-0.1
	C15.9,28.4,16.4,27.9,17.1,27.9C17.1,27.9,17.1,27.9,17.1,27.9L17.1,27.9z M17.1,29.8C17.1,29.8,17.2,29.8,17.1,29.8
	c0.5,0,0.8-0.3,0.8-0.8s-0.3-0.8-0.8-0.8c-0.4,0-0.8,0.3-0.8,0.8c0,0,0,0.1,0,0.1C16.4,29.5,16.7,29.8,17.1,29.8
	C17.1,29.8,17.1,29.8,17.1,29.8L17.1,29.8z"/>
<path class="st0" d="M19.2,29.9C19.2,29.9,19.2,30,19.2,29.9c0,0.1,0,0.1,0,0.2c0,0-0.1,0.1-0.2,0.1s-0.1,0-0.2-0.1c0,0,0-0.1,0-0.1
	c0,0,0,0,0-0.1v-1.9c0-0.1,0.1-0.2,0.2-0.2c0.1,0,0.3,0.1,0.3,0.2l1,1.3v-1.2c0,0,0,0,0-0.1c0-0.1,0-0.1,0-0.1c0,0,0.1-0.1,0.2-0.1
	s0.1,0,0.2,0.1c0,0,0,0.1,0,0.1c0,0,0,0,0,0.1V30c0,0.1-0.1,0.2-0.2,0.2s-0.2-0.1-0.3-0.2l-1.1-1.3L19.2,29.9z"/>
<path class="st0" d="M22.7,30.1c-0.2,0.1-0.3,0.1-0.5,0.1c0,0,0,0-0.1,0h-0.4c-0.2-0.1-0.2-0.2-0.2-0.3v-1.7c0-0.2,0.1-0.2,0.2-0.3
	H22c0.5,0,0.8,0.2,0.8,0.5c0,0,0,0,0,0c0,0.2-0.1,0.4-0.3,0.5c0.3,0.1,0.5,0.3,0.5,0.6C23,29.8,22.8,30,22.7,30.1L22.7,30.1z
	 M21.9,28.8L21.9,28.8c0.1,0,0.1,0,0.1,0c0.1,0,0.2,0,0.3-0.1c0.1,0,0.1-0.1,0.1-0.2c0-0.2-0.2-0.3-0.4-0.3h-0.2L21.9,28.8z
	 M21.9,29.8h0.2c0.3,0,0.5-0.1,0.5-0.3c0,0,0,0,0,0c0-0.1-0.1-0.2-0.2-0.3c-0.1,0-0.2-0.1-0.3-0.1c0,0,0,0-0.1,0H22L21.9,29.8z"/>
<path class="st0" d="M24.5,27.9C24.6,27.9,24.6,27.9,24.5,27.9c0.7,0,1.2,0.5,1.2,1.1c0,0,0,0,0,0.1c0,0,0,0,0,0.1
	c0,0.6-0.5,1.1-1.1,1.1c0,0,0,0-0.1,0c0,0,0,0-0.1,0c-0.6,0-1.1-0.5-1.1-1.1c0,0,0,0,0-0.1c0,0,0,0,0-0.1
	C23.4,28.4,23.9,27.9,24.5,27.9C24.5,27.9,24.5,27.9,24.5,27.9L24.5,27.9z M24.5,29.8C24.6,29.8,24.6,29.8,24.5,29.8
	c0.5,0,0.8-0.3,0.8-0.8s-0.3-0.8-0.8-0.8c-0.4,0-0.8,0.3-0.8,0.8c0,0,0,0.1,0,0.1C23.8,29.5,24.1,29.8,24.5,29.8
	C24.5,29.8,24.5,29.8,24.5,29.8L24.5,29.8z"/>
<path class="st0" d="M26.7,29.9C26.7,29.9,26.7,30,26.7,29.9c0,0.1,0,0.1,0,0.2c0,0-0.1,0.1-0.2,0.1s-0.1,0-0.2-0.1c0,0,0-0.1,0-0.1
	c0,0,0,0,0-0.1v-1.9c0-0.1,0.1-0.2,0.2-0.2c0.1,0,0.3,0.1,0.3,0.2l1,1.3v-1.2c0,0,0,0,0-0.1c0-0.1,0-0.1,0-0.1c0,0,0.1-0.1,0.2-0.1
	s0.1,0,0.2,0.1c0,0,0,0.1,0,0.1c0,0,0,0,0,0.1V30c0,0.1-0.1,0.2-0.2,0.2s-0.2-0.1-0.3-0.2l-1.1-1.3L26.7,29.9z"/>
<path class="st0" d="M29.8,28.9c0.2,0.1,0.3,0.3,0.4,0.6c0,0.4-0.3,0.7-0.7,0.7c0,0,0,0-0.1,0c-0.2,0-0.3-0.1-0.5-0.1
	c-0.1-0.1-0.2-0.1-0.2-0.2s0.1-0.2,0.2-0.2s0.2,0.2,0.5,0.2s0.3-0.1,0.3-0.3s-0.1-0.3-0.3-0.3s-0.6-0.3-0.6-0.7
	c0-0.4,0.3-0.6,0.7-0.6c0,0,0,0,0.1,0c0.3,0,0.6,0.1,0.6,0.3c0,0,0,0,0,0c0,0.1-0.1,0.2-0.2,0.2c-0.1,0-0.2-0.1-0.4-0.1
	s-0.3,0.1-0.3,0.2S29.6,28.8,29.8,28.9z"/>
</svg>
