<?xml version="1.0" encoding="utf-8"?>
<!-- Generated by IcoMoon.io -->
<!DOCTYPE svg PUBLIC "-//W3C//DTD SVG 1.1//EN" "http://www.w3.org/Graphics/SVG/1.1/DTD/svg11.dtd">
<svg version="1.1" xmlns="http://www.w3.org/2000/svg" xmlns:xlink="http://www.w3.org/1999/xlink" width="32" height="32" viewBox="0 0 32 32">
<path fill="#fff" d="M3.3 3.362h25.4c1.238 0 2.238 1 2.238 2.237v0c0 1.237-1 2.237-2.238 2.237h-25.4c-1.237 0-2.237-1-2.237-2.237v0c0-1.237 1-2.237 2.237-2.237zM3.3 13.825h25.4c1.238 0 2.238 1 2.238 2.238v0c0 1.238-1 2.238-2.238 2.238h-25.4c-1.237 0-2.237-1-2.237-2.238v0c0-1.238 1-2.238 2.237-2.238zM3.3 24.275h25.4c1.238 0 2.238 1 2.238 2.238v0c0 1.238-1 2.238-2.238 2.238h-25.4c-1.237 0-2.237-1-2.237-2.238v0c0-1.238 1-2.238 2.237-2.238z"></path>
</svg>
