<?xml version="1.0" encoding="utf-8"?>
<!-- Generated by IcoMoon.io -->
<!DOCTYPE svg PUBLIC "-//W3C//DTD SVG 1.1//EN" "http://www.w3.org/Graphics/SVG/1.1/DTD/svg11.dtd">
<svg version="1.1" xmlns="http://www.w3.org/2000/svg" xmlns:xlink="http://www.w3.org/1999/xlink" width="32" height="32" viewBox="0 0 32 32">
<path fill="#fff" d="M23.387 26.675l-17.95-17.95c-0.875-0.875-0.875-2.3 0-3.175v0c0.875-0.875 2.3-0.875 3.175 0l17.95 17.95c0.875 0.875 0.875 2.3 0 3.175v0c-0.875 0.875-2.3 0.875-3.175 0zM26.563 8.75l-17.95 17.95c-0.875 0.875-2.3 0.875-3.175 0v0c-0.875-0.875-0.875-2.3 0-3.175l17.95-17.95c0.875-0.875 2.3-0.875 3.175 0v0c0.875 0.875 0.875 2.3 0 3.175z"></path>
</svg>
