<?xml version="1.0" encoding="utf-8"?>
<!-- Generated by IcoMoon.io -->
<!DOCTYPE svg PUBLIC "-//W3C//DTD SVG 1.1//EN" "http://www.w3.org/Graphics/SVG/1.1/DTD/svg11.dtd">
<svg version="1.1" xmlns="http://www.w3.org/2000/svg" xmlns:xlink="http://www.w3.org/1999/xlink" width="32" height="32" viewBox="0 0 32 32">
<path fill="#fff" d="M4.533 13.067c-0.133-0.311-0.356-0.444-0.533-0.622-1.867-1.822-2.444-4.489-1.422-6.889 0.267-0.667 0.356-0.711 0.844-0.178 2.711 3.022 6.089 4.933 10.133 5.689 0.444 0.089 0.933 0.133 1.422 0.178 0.667 0.089 0.711 0.044 0.667-0.667-0.178-2.311 0.622-4.267 2.489-5.689 2.311-1.778 5.511-1.689 7.733 0.222 0.444 0.356 0.8 0.444 1.333 0.311 0.844-0.267 1.644-0.578 2.444-0.933 0.178-0.089 0.4-0.311 0.533-0.133 0.133 0.133-0.089 0.4-0.178 0.578-0.4 0.844-0.978 1.511-1.689 2.133-0.133 0.089-0.311 0.178-0.356 0.4 1.022-0.089 2-0.444 2.978-0.711-0.356 0.711-0.844 1.378-1.467 1.822-1.111 0.756-1.378 1.733-1.467 3.067-0.356 5.244-2.578 9.6-6.667 12.933-2.8 2.311-6.089 3.467-9.733 3.689-3.333 0.222-6.444-0.444-9.378-1.956-0.356-0.178-0.711-0.4-1.067-0.711 1.022 0.089 2.044-0.044 3.022-0.178 1.911-0.267 3.6-0.978 5.2-2.044 0.133-0.089 0.356-0.178 0.311-0.356s-0.311-0.133-0.444-0.133c-2.133-0.444-3.778-1.511-4.711-3.511-0.267-0.622-0.222-0.667 0.444-0.667 0.533 0 1.111 0.044 1.689-0.133-0.178-0.222-0.444-0.267-0.622-0.356-2.267-0.978-3.6-2.622-3.956-5.067-0.089-0.667 0-0.756 0.667-0.489 0.533 0.222 1.111 0.444 1.778 0.4z"></path>
</svg>
